<svg width="148" height="151" viewBox="0 0 148 151" fill="none" xmlns="http://www.w3.org/2000/svg">
<path d="M106.256 18.0551C94.2235 25.122 87.108 38.583 86.6418 52.3782C84.3115 49.8525 82.0044 47.028 80.6171 43.974C78.3203 38.6847 76.2823 30.8296 79.3381 25.5335C80.7187 23.2349 77.5654 20.4652 75.3807 21.4988C66.0208 25.886 59.9657 33.4155 56.7376 43.2685C54.7343 49.7284 53.6087 57.2786 54.5712 64.2687C53.0219 63.3069 51.5969 62.2946 50.2455 61.1076C47.0417 58.2136 44.3072 54.6945 42.4421 50.8218C39.4927 44.6401 37.7535 36.8081 38.235 29.8094C38.3318 29.3358 38.6033 28.9359 38.7001 28.4623C38.9947 27.7635 38.218 26.9216 37.4729 27.2247C30.5923 29.8794 26.4317 37.7961 23.3064 43.9888C19.5645 51.156 17.1467 59.0873 16.5726 67.2815C16.0406 74.1559 17.4493 80.8197 19.3546 87.2815C24.3591 104.206 34.7667 121.248 50.8988 129.593C71.4261 140.202 99.241 132.793 115.683 117.708C128.808 105.855 130.674 88.7403 125.448 72.3397C120.195 55.5161 105.469 40.6654 110.908 21.6625C111.737 18.7199 108.961 16.5205 106.256 18.0551ZM99.7347 119.421C98.5434 120.05 97.3016 120.555 96.0597 121.061C92.7068 122.425 89.1792 123.715 85.6242 124.583C79.9222 124.442 74.34 123.529 69.7155 120.345C65.8402 117.579 63.6025 113.858 62.7813 109.705C68.4815 113.755 77.4251 114.747 83.647 114.387C87.0316 114.168 86.9512 108.99 83.7371 108.561C73.2717 107.029 75.6828 93.7455 78.9341 83.5936C82.7843 90.5666 91.1283 95.4219 93.5158 103.424C94.0484 105.089 96.4164 105.573 97.5803 104.521C100.801 101.763 103.295 98.2878 104.317 94.398C106.431 98.1697 107.551 102.346 107.029 106.755C106.337 111.813 103.649 116.236 99.7347 119.421ZM108.338 50.2086C110.755 54.7254 113.37 59.017 115.538 63.6348C121.437 75.9983 125.706 90.7613 118.587 103.5C116.64 106.898 114.192 109.775 111.243 112.133C111.708 110.786 111.999 109.365 112.289 107.944C113.655 98.849 109.147 90.2616 103.283 83.6739C101.403 81.5439 97.3556 83.3354 98.5682 86.3158C100.185 90.2896 99.2129 94.3036 96.7926 97.6042C95.0559 94.4029 92.5509 91.8036 89.9218 89.2548C86.0149 85.3443 80.683 80.4214 82.539 74.311C83.4417 71.1936 79.3224 69.2511 77.8219 72.3222C73.7391 80.7861 67.6658 97.8758 72.7518 107.53C68.0895 106.388 63.9933 104.146 63.471 100.017C63.0266 96.4343 58.2486 96.7862 57.5206 99.9772C54.0843 112.52 60.1638 121.771 69.4275 126.396C67.4595 126.184 65.4915 125.971 63.4224 125.511C46.8191 121.7 35.5276 106.754 29.2898 91.7788C26.713 85.4455 24.4582 78.8365 23.8452 71.9937C23.3564 65.1003 25.0566 57.8953 27.3588 51.4585C28.9013 47.0677 30.8438 42.9484 33.3104 39.0501C33.8028 38.126 34.47 37.2756 34.9625 36.3515C34.5461 41.7315 36.0747 47.6229 38.0683 52.1671C41.6008 60.1379 48.5684 68.0137 56.706 71.6502L56.7566 71.7744C58.4008 76.1713 65.2308 73.3924 63.4624 69.046C60.633 62.0919 61.6258 53.1483 63.5512 46.1411C65.0852 40.3064 67.8927 35.1114 72.1526 31.3519C71.9109 36.8055 73.3384 42.4485 75.5068 47.0664C76.3383 48.7544 83.2913 58.373 88.0401 61.5068C89.9747 64.4829 95.544 63.2301 94.7733 59.2015C92.5392 47.6629 96.4808 36.3617 104.274 28.1249C103.448 35.6981 104.814 43.6817 108.338 50.2086Z" fill="#2FFF00"/>
</svg>
